<svg width="169" height="159" viewBox="0 0 169 159" fill="none" xmlns="http://www.w3.org/2000/svg">
<path d="M22.9727 71.3286C29.1943 71.3286 34.244 66.2718 34.244 60.0573C34.244 53.8356 29.1872 48.786 22.9727 48.786C16.751 48.786 11.7014 53.8427 11.7014 60.0573C11.7014 66.2718 16.751 71.3286 22.9727 71.3286ZM22.9727 52.2158C27.298 52.2158 30.8278 55.7456 30.8278 60.0709C30.8278 64.3962 27.298 67.926 22.9727 67.926C18.6474 67.926 15.1176 64.3962 15.1176 60.0709C15.1176 55.7456 18.6474 52.2158 22.9727 52.2158ZM146.027 70.0709C152.249 70.0709 157.299 65.0142 157.299 58.7996C157.299 52.578 152.242 47.5284 146.027 47.5284C139.806 47.5284 134.756 52.5851 134.756 58.7996C134.756 65.0213 139.813 70.0709 146.027 70.0709ZM146.027 50.9436C150.352 50.9436 153.882 54.4735 153.882 58.7987C153.882 63.124 150.352 66.6538 146.027 66.6538C141.702 66.6538 138.172 63.124 138.172 58.7987C138.172 54.4735 141.702 50.9436 146.027 50.9436ZM146.027 71.22C141.752 71.22 137.611 72.4771 134.067 74.7853C132.554 48.7635 110.9 28.038 84.4998 28.038C57.6816 28.038 35.7707 49.4235 34.8834 76.0216C31.3394 73.7276 27.2272 72.4918 22.9729 72.4918C10.7712 72.4918 0.86377 82.4136 0.86377 94.6009V96.0924C0.86377 98.6777 2.95177 100.766 5.53704 100.766H40.4098C40.4453 100.766 40.5021 100.744 40.5376 100.744C40.701 101.071 40.8856 101.384 41.049 101.71L37.5192 105.24C36.4112 106.348 35.8075 107.825 35.8075 109.388C35.8075 110.368 36.0632 111.298 36.5177 112.136L6.9159 141.724C5.11903 143.52 4.11754 145.942 4.11754 148.506C4.11754 151.07 5.11896 153.471 6.9159 155.289C8.79081 157.164 11.2412 158.087 13.6986 158.087C16.1561 158.087 18.6063 157.157 20.4814 155.289L50.0832 125.687C50.9212 126.142 51.8445 126.397 52.8317 126.397C54.3942 126.397 55.8715 125.801 56.9794 124.686L60.5092 121.156C67.6399 125.105 75.8217 127.356 84.5074 127.356C104.075 127.356 121.035 115.971 129.109 99.5017H163.469C166.054 99.5017 168.142 97.4137 168.142 94.8285V93.337C168.135 81.1424 158.229 71.22 146.027 71.22ZM5.53631 97.3418C4.84739 97.3418 4.27921 96.7807 4.27921 96.0847V94.5932C4.27921 84.2807 12.6599 75.9005 22.9719 75.9005C27.3327 75.9005 31.5516 77.463 34.9179 80.2612C35.2304 86.2981 36.6296 92.044 38.9165 97.3351L5.53631 97.3418ZM47.4618 123.449L41.645 129.266L32.9163 120.537L38.733 114.72L47.4618 123.449ZM18.0654 152.853C15.6649 155.253 11.7585 155.253 9.33668 152.853C8.17192 151.688 7.53981 150.147 7.53981 148.492C7.53981 146.837 8.17901 145.289 9.33668 144.131L30.5021 122.98L39.2309 131.709L18.0654 152.853ZM54.5563 122.249C54.1018 122.704 53.4839 122.959 52.8305 122.959C52.177 122.959 51.5592 122.704 51.1046 122.249L39.9612 111.106C39.5066 110.651 39.2509 110.033 39.2509 109.38C39.2509 108.726 39.5066 108.108 39.9612 107.654L42.8873 104.728C46.687 110.566 51.6657 115.544 57.5039 119.344L54.5563 122.249ZM84.5 123.947C59.009 123.947 38.2636 103.201 38.2636 77.7102C38.2636 52.1993 59.009 31.4538 84.5 31.4538C109.991 31.4538 130.736 52.1993 130.736 77.6902C130.736 103.201 109.991 123.947 84.5 123.947ZM164.72 94.8138C164.72 95.5027 164.159 96.0709 163.463 96.0709H130.608C132.739 90.7584 133.975 84.9986 134.117 78.9615C137.483 76.1775 141.659 74.6362 146.027 74.6362C156.34 74.6362 164.72 83.0169 164.72 93.3289L164.72 94.8138ZM84.5 37.5047C62.3345 37.5047 44.3145 55.5233 44.3145 77.6902C44.3145 99.8556 62.333 117.876 84.5 117.876C106.667 117.876 124.685 99.8571 124.685 77.6902C124.685 55.5447 106.667 37.5047 84.5 37.5047ZM84.5 114.472C64.2309 114.472 47.7381 97.9805 47.7381 77.7102C47.7381 57.4338 64.2296 40.9284 84.5 40.9284C104.77 40.9284 121.262 57.4198 121.262 77.6902C121.262 97.9593 104.77 114.472 84.5 114.472ZM82.7883 15.8356V1.81581C82.7883 0.871211 83.5554 0.104156 84.5 0.104156C85.4446 0.104156 86.2116 0.871211 86.2116 1.81581V15.8356C86.2116 16.7802 85.4446 17.5473 84.5 17.5473C83.5554 17.5402 82.7883 16.7802 82.7883 15.8356ZM113.954 23.2716L120.957 11.1267C121.433 10.31 122.462 10.033 123.286 10.5088C124.103 10.9847 124.38 12.0145 123.904 12.8383L116.901 24.9832C116.589 25.5301 116.013 25.8355 115.431 25.8355C115.14 25.8355 114.849 25.7644 114.579 25.6011C113.755 25.1252 113.485 24.0883 113.954 23.2716ZM45.0828 12.8313C44.607 12.0145 44.884 10.9776 45.7007 10.5018C46.5175 10.026 47.5544 10.3029 48.0302 11.1197L55.0331 23.2646C55.5089 24.0814 55.232 25.1182 54.4152 25.5941C54.1453 25.7574 53.8541 25.8284 53.5629 25.8284C52.9806 25.8284 52.3982 25.5159 52.0928 24.9762L45.0828 12.8313ZM84.501 70.0676C90.7227 70.0676 95.7723 65.0109 95.7723 58.7964C95.7723 52.5747 90.7156 47.5251 84.501 47.5251C78.2794 47.5251 73.2298 52.5818 73.2298 58.7964C73.2298 65.018 78.2794 70.0676 84.501 70.0676ZM84.501 50.9404C88.8263 50.9404 92.3561 54.4702 92.3561 58.7954C92.3561 63.1207 88.8263 66.6505 84.501 66.6505C80.1758 66.6505 76.6459 63.1207 76.6459 58.7954C76.6459 54.4702 80.1758 50.9404 84.501 50.9404ZM84.501 71.2167C72.3207 71.2167 62.3919 81.1244 62.3919 93.3258V94.8173C62.3919 97.4025 64.4799 99.4905 67.0652 99.4905H101.938C104.523 99.4905 106.611 97.4025 106.611 94.8173V93.3258C106.611 81.1384 96.6812 71.2167 84.501 71.2167ZM103.194 94.8113C103.194 95.5002 102.633 96.0684 101.937 96.0684H67.0639C66.375 96.0684 65.8068 95.5073 65.8068 94.8113V93.3198C65.8068 83.0072 74.1875 74.6271 84.4995 74.6271C94.8115 74.6271 103.192 83.0078 103.192 93.3198L103.194 94.8113Z" fill="#151433"/>
</svg>
